<!-- Generated by IcoMoon.io -->
<svg version="1.1" xmlns="http://www.w3.org/2000/svg" width="512" height="512" viewBox="0 0 512 512">
<title></title>
<g id="icomoon-ignore">
</g>
<path d="M245.996 512.024c-7.016-1.233-14.032-1.991-20.857-3.793-32.994-8.626-55.935-29.675-71.485-59.349-2.464-4.743-4.456-9.858-6.447-14.978 27.21 36.404 62.951 56.885 108.836 56.693 45.79-0.096 81.439-20.667 109.026-56.693-2.274 4.929-4.265 9.954-6.73 14.696-16.875 31.762-41.81 53.375-77.742 60.959-5.024 1.041-10.24 1.61-15.36 2.464-6.447 0-12.895 0-19.244 0z"></path>
<path d="M265.906 0.071c6.161 1.042 12.418 1.706 18.488 3.128 31.193 7.394 54.038 25.977 70.062 53.188 4.079 6.825 7.207 14.314 10.336 21.712-27.397-36.404-63.046-56.789-108.931-56.694-45.79 0.096-81.439 20.667-108.931 56.789 1.042-2.56 1.992-5.216 3.129-7.775 13.082-28.347 32.803-50.246 62.1-62.286 9.954-4.079 20.289-6.543 30.907-7.489 1.137-0.096 2.274-0.473 3.415-0.664 6.635 0.096 12.987 0.096 19.435 0.096z"></path>
<path d="M511.928 266.001c-0.854 5.12-1.423 10.336-2.464 15.36-7.584 35.645-29.010 60.39-60.676 76.983-3.983 2.087-8.153 3.697-12.231 5.593-0.854 0.377-1.705 0.568-2.751 0.664 36.5-27.115 56.98-62.76 56.789-108.649-0.096-45.79-20.667-81.439-56.693-109.122 4.834 2.183 9.671 4.17 14.315 6.635 27.397 14.315 47.877 35.077 57.735 64.846 2.656 8.058 3.601 16.593 5.402 24.932 0.282 1.137 0.473 2.274 0.664 3.415-0.096 6.543-0.096 12.896-0.096 19.339z"></path>
<path d="M-0.028 246.094c1.327-7.207 2.087-14.506 3.983-21.617 8.817-32.708 29.77-55.366 59.254-70.821 4.743-2.464 9.858-4.456 14.978-6.447-36.404 27.21-56.885 62.855-56.694 108.745 0.096 45.79 20.667 81.439 57.076 108.458-0.191 0.282-0.282 0.568-0.473 0.854-7.299-3.697-14.883-7.016-21.899-11.281-29.389-17.825-48.35-43.043-54.325-77.361-0.664-3.793-1.137-7.68-1.706-11.567-0.191-6.161-0.191-12.609-0.191-18.962z"></path>
<path d="M256.139 61.316c1.137 14.128 1.61 28.442 3.506 42.474s5.024 27.874 7.68 41.906c0.377 1.896 1.233 2.751 3.224 2.938 47.877 6.352 86.368 44.653 92.625 92.056 0.282 2.464 1.519 3.129 3.506 3.601 16.401 4.266 33.18 6.826 50.059 8.058 11.281 0.855 22.563 1.327 31.949 1.8-11.091 0.946-24.272 1.518-37.259 3.415-14.883 2.183-29.483 5.593-44.276 8.344-2.751 0.473-3.506 1.991-3.793 4.551-4.929 45.034-42.852 84.849-87.696 92.152-7.776 1.233-7.776 1.233-9.767 9.103-5.688 23.132-7.871 46.644-9.007 70.349-0.096 2.842-0.282 5.688-0.377 7.584-0.855-11.659-1.137-24.363-2.751-36.973-2.087-15.36-5.311-30.529-7.962-45.79-0.377-2.369-1.61-3.224-4.078-3.506-45.981-5.498-84.945-42.661-92.434-88.169-1.327-7.962-1.327-7.962-9.29-9.858-22.090-5.311-44.558-7.68-67.216-8.626-2.087-0.096-4.17 0-6.257 0 0-0.282 0-0.664 0-0.946 6.448-0.377 12.8-0.664 19.243-1.137 20.099-1.423 40.010-4.078 59.54-9.29 2.183-0.569 3.033-1.61 3.32-3.792 5.402-45.412 42.475-84.472 87.314-92.056 9.29-1.61 9.29-1.61 11.472-10.713 5.689-24.082 7.962-48.541 8.626-73.286 0-1.423 0-2.751 0-4.17 0 0 0 0 0.096 0zM256.425 164.464c-5.498 23.227-18.866 40.861-34.794 56.789s-33.657 29.106-56.789 34.89c23.322 5.688 41.052 18.962 56.98 34.89 15.833 15.833 29.202 33.467 34.699 56.411 5.498-22.849 18.77-40.579 34.699-56.411 15.928-15.928 33.657-29.106 56.789-34.89-23.322-5.784-41.051-19.057-56.98-34.986-15.928-16.119-29.202-33.749-34.603-56.694zM163.609 239.264c36.881-13.841 62.005-38.869 75.846-75.464-30.243-1.232-74.614 42.661-75.846 75.464zM239.456 348.2c-13.841-36.596-39.060-61.623-75.655-75.373-1.992 29.389 46.172 77.265 75.655 75.373zM273.396 348.295c40.765-6.353 71.485-43.421 74.709-75.75-35.74 13.273-61.909 40.101-74.709 75.75zM273.488 163.704c9.671 32.043 48.163 70.157 74.709 74.137-6.635-38.682-40.101-68.83-74.709-74.137z"></path>
<path d="M245.901 278.233c-4.552 4.647-9.007 9.29-13.56 14.033-0.191-0.096-0.473-0.282-0.664-0.377 2.369-6.161 4.743-12.231 7.489-19.152-6.826 2.656-12.987 5.12-19.153 7.489-0.191-0.282-0.377-0.473-0.569-0.76 4.834-4.456 9.576-9.007 14.41-13.464-0.191-0.282-0.282-0.568-0.473-0.854-6.543 0-13.082 0-19.625 0-0.095-0.282-0.191-0.664-0.282-0.946 5.97-2.656 12.041-5.216 18.866-8.153-6.635-2.842-12.514-5.402-18.298-7.962 0-0.282 0-0.473 0.095-0.76 6.447 0 12.895 0 20.289 0-5.498-5.402-10.144-10.049-14.883-14.791 0.191-0.282 0.377-0.473 0.569-0.76 6.066 2.369 12.232 4.834 19.153 7.584-2.655-6.826-5.12-12.987-7.489-19.153 0.191-0.095 0.282-0.191 0.473-0.282 4.456 4.743 9.007 9.481 13.464 14.219 0.377-0.191 0.76-0.377 1.232-0.569 0-6.447 0-12.987 0-19.434 0.377-0.095 0.664-0.095 1.042-0.191 2.56 5.88 5.12 11.85 8.058 18.488 2.938-6.73 5.593-12.704 8.153-18.675 0.191 0 0.377 0.095 0.664 0.095 0 6.543 0 13.082 0 20.572 5.216-5.498 9.767-10.335 14.315-15.169 0.377 0.282 0.76 0.569 1.137 0.946-2.369 6.066-4.834 12.232-7.584 19.244 6.825-2.655 12.987-5.12 20.194-7.962-5.402 5.311-10.144 9.858-14.791 14.41 0.191 0.377 0.282 0.664 0.473 1.042 6.543 0 13.178 0 19.721 0 0 0.282 0.096 0.569 0.096 0.855-5.971 2.655-11.945 5.215-18.675 8.153 6.635 2.937 12.418 5.497 18.298 8.057 0 0.282-0.096 0.568-0.096 0.854-6.447 0-12.987 0-20.289 0 5.402 5.311 10.144 9.858 14.883 14.505-0.191 0.282-0.377 0.568-0.568 0.854-6.066-2.369-12.231-4.743-19.152-7.489 2.656 6.921 5.12 13.082 7.489 19.243-0.282 0.191-0.473 0.377-0.76 0.568-4.456-4.834-9.007-9.576-13.464-14.41-0.282 0.096-0.664 0.282-0.946 0.377 0 6.447 0 12.987 0 19.435-0.282 0-0.568 0.096-0.854 0.096-2.56-5.88-5.12-11.755-8.058-18.584-2.938 6.73-5.498 12.704-8.153 18.77-0.282 0-0.473-0.096-0.76-0.096 0-6.543 0-13.082 0-19.625-0.664-0.096-1.042-0.191-1.423-0.282zM256.046 238.222c-9.858-0.095-17.92 7.871-17.92 17.729 0 9.671 7.775 17.634 17.443 17.825 9.859 0.096 18.011-7.776 18.107-17.538 0.096-9.858-7.871-17.92-17.634-18.012z"></path>
</svg>
